<svg id="Layer_1" data-name="Layer 1" xmlns="http://www.w3.org/2000/svg" viewBox="0 0 512 96.02"><defs><style>.cls-1{fill:#21ad79;}.cls-2{fill:#fff;}</style></defs><title>Trustpilot_ratings_5star_CMYK</title><rect class="cls-1" y="0.02" width="96" height="96"/><rect class="cls-1" x="104" y="0.02" width="96" height="96"/><rect class="cls-1" x="208" y="0.02" width="96" height="96"/><rect class="cls-1" x="312" y="0.02" width="96" height="96"/><rect class="cls-1" x="416" width="96" height="96"/><path class="cls-2" d="M48,64.68,62.64,61,68.76,79.8ZM81.6,40.44H55.92L48,16.2,40.08,40.44H14.4l20.76,15L27.24,79.68,48,64.68l12.84-9.24,20.76-15Z" transform="translate(0 0.02)"/><path class="cls-2" d="M152,64.68,166.64,61l6.12,18.84Zm33.6-24.24H159.92L152,16.2l-7.92,24.24H118.4l20.76,15-7.92,24.24,20.76-15,12.84-9.24,20.76-15Z" transform="translate(0 0.02)"/><path class="cls-2" d="M256,64.68,270.64,61l6.12,18.84Zm33.6-24.24H263.92L256,16.2l-7.92,24.24H222.4l20.76,15-7.92,24.24,20.76-15,12.84-9.24,20.76-15Z" transform="translate(0 0.02)"/><path class="cls-2" d="M360,64.68,374.64,61l6.12,18.84Zm33.6-24.24H367.92L360,16.2l-7.92,24.24H326.4l20.76,15-7.92,24.24,20.76-15,12.84-9.24,20.76-15Z" transform="translate(0 0.02)"/><path class="cls-2" d="M464,64.68,478.64,61l6.12,18.84Zm33.6-24.24H471.92L464,16.2l-7.92,24.24H430.4l20.76,15-7.92,24.24,20.76-15,12.84-9.24,20.76-15Z" transform="translate(0 0.02)"/></svg>